<svg id="Livello_1" data-name="Livello 1" xmlns="http://www.w3.org/2000/svg" viewBox="0 0 177.69 57.63"><defs><style>.cls-1{fill:#e2001a;}.cls-2{fill:#fff;}.cls-3{fill:#1a171b;}</style></defs><title>SardignaRicerche_sbandierato</title><path class="cls-1" d="M0,28.82a29.11,29.11,0,0,1,58.21,0,29,29,0,0,1-29.1,28.81A29,29,0,0,1,0,28.82"/><path class="cls-1" d="M0,28.82a29.11,29.11,0,0,1,58.21,0,29,29,0,0,1-29.1,28.81A29,29,0,0,1,0,28.82"/><polygon class="cls-2" points="29.11 2.48 33.29 20.55 24.93 20.55 29.11 2.48"/><polygon class="cls-2" points="18.93 4.49 29.77 19.59 22.05 22.76 18.93 4.49"/><polygon class="cls-2" points="10.3 10.2 26.16 20.04 20.25 25.9 10.3 10.2"/><polygon class="cls-2" points="4.54 18.74 22.99 21.83 19.79 29.48 4.54 18.74"/><polygon class="cls-2" points="2.51 28.82 20.75 24.68 20.75 32.96 2.51 28.82"/><polygon class="cls-2" points="4.54 38.9 19.79 28.16 22.99 35.81 4.54 38.9"/><polygon class="cls-2" points="10.3 47.44 20.25 31.74 26.16 37.59 10.3 47.44"/><polygon class="cls-2" points="18.93 53.14 22.05 34.88 29.77 38.05 18.93 53.14"/><polygon class="cls-2" points="29.11 55.15 24.93 37.09 33.29 37.09 29.11 55.15"/><polygon class="cls-2" points="39.29 53.14 28.45 38.04 36.17 34.88 39.29 53.14"/><polygon class="cls-2" points="47.91 47.44 32.06 37.59 37.97 31.74 47.91 47.44"/><polygon class="cls-2" points="53.68 38.9 35.23 35.81 38.43 28.16 53.68 38.9"/><polygon class="cls-2" points="55.7 28.82 37.47 32.96 37.47 24.68 55.7 28.82"/><polygon class="cls-2" points="53.68 18.75 38.43 29.48 35.23 21.83 53.68 18.75"/><polygon class="cls-2" points="47.91 10.21 37.97 25.9 32.06 20.05 47.91 10.21"/><polygon class="cls-2" points="39.29 4.5 36.17 22.76 28.45 19.6 39.29 4.5"/><path class="cls-1" d="M14.35,28.82A14.76,14.76,0,1,1,29.11,43.58,14.76,14.76,0,0,1,14.35,28.82"/><path class="cls-3" d="M71.74,23.9l.13.11a2.72,2.72,0,0,0,1.6.64c.25,0,.65-.1.65-.42s-.33-.34-.57-.39L73,23.75a1.94,1.94,0,0,1-1.84-1.87,2.79,2.79,0,0,1,3-2.6,4.22,4.22,0,0,1,2.24.61l-.7,1.8a2.61,2.61,0,0,0-1.48-.53c-.22,0-.55.08-.55.37s.32.3.51.35l.58.13c1.08.24,1.87.82,1.87,2,0,1.68-1.53,2.51-3,2.51A6.36,6.36,0,0,1,71,25.89Z"/><path class="cls-3" d="M79.58,26.42h-2.7l2.44-7h2.83l2.51,7H82l-.23-.87H79.79Zm1.69-2.54L81,22.63a8.91,8.91,0,0,1-.16-.9h-.1l-.46,2.15Z"/><path class="cls-3" d="M85.19,19.39h3.09c1.59,0,2.93.67,2.93,2.44a1.66,1.66,0,0,1-1.36,1.83v.06a1.67,1.67,0,0,1,.43.42l1.53,2.28h-3l-1.12-2.25h0v2.25h-2.5Zm2.5,3.11h.18c.42,0,.84-.06.84-.58s-.38-.61-.82-.61h-.2Z"/><path class="cls-3" d="M92.27,19.39h2.61c2.36,0,4.17,1,4.17,3.62a3.29,3.29,0,0,1-3.54,3.41H92.27Zm2.56,4.92H95c.85,0,1.5-.39,1.5-1.31s-.57-1.41-1.5-1.41h-.16Z"/><path class="cls-3" d="M100,19.39h2.56v7H100Z"/><path class="cls-3" d="M111.17,22.28a4,4,0,0,1-.85,3,4.11,4.11,0,0,1-3,1.25,3.64,3.64,0,1,1,0-7.26,3.92,3.92,0,0,1,3.45,1.81l-2.39.87a1.08,1.08,0,0,0-1-.54A1.48,1.48,0,0,0,106,23.05a1.39,1.39,0,0,0,1.32,1.51,1,1,0,0,0,1-.62h-1.16V22.28Z"/><path class="cls-3" d="M112,19.39h2.46l2.29,3.9h.08a10,10,0,0,1-.22-1.79V19.39h2.45v7h-2.45l-2.25-3.69h-.07a8.58,8.58,0,0,1,.16,1.41v2.28H112Z"/><path class="cls-3" d="M122.26,26.42h-2.71l2.45-7h2.83l2.51,7h-2.71l-.23-.87h-1.94ZM124,23.88l-.3-1.25a8.93,8.93,0,0,1-.17-.9h-.09l-.47,2.15Z"/><path class="cls-3" d="M136.57,22.31a2.33,2.33,0,0,0-1.51-.71A1.38,1.38,0,0,0,133.67,23a1.4,1.4,0,0,0,1.43,1.37,2,2,0,0,0,1.47-.66l-.08,2.64a5.82,5.82,0,0,1-1.82.28A3.52,3.52,0,0,1,131.1,23a3.65,3.65,0,0,1,3.67-3.69,5.53,5.53,0,0,1,1.72.28Z"/><path class="cls-3" d="M137.47,19.46h2.46v2.37h1.57V19.46H144v7H141.5V24.05h-1.57v2.44h-2.46Z"/><path class="cls-3" d="M145.13,19.46h2.56v7h-2.56Z"/><path class="cls-3" d="M148.87,19.46H152c1.59,0,2.93.67,2.93,2.44a1.66,1.66,0,0,1-1.36,1.83v.06a1.67,1.67,0,0,1,.43.42l1.53,2.28h-3l-1.12-2.25h0v2.25h-2.51Zm2.51,3.11h.17c.42,0,.84-.06.84-.58s-.38-.61-.82-.61h-.19Z"/><path class="cls-3" d="M161.15,22.31a2.28,2.28,0,0,0-1.5-.71A1.38,1.38,0,0,0,158.26,23a1.4,1.4,0,0,0,1.43,1.37,2,2,0,0,0,1.46-.66l-.07,2.64a5.82,5.82,0,0,1-1.82.28A3.53,3.53,0,0,1,155.68,23a3.66,3.66,0,0,1,3.68-3.69,5.53,5.53,0,0,1,1.72.28Z"/><path class="cls-3" d="M164.13,26.49h-2.71l2.45-7h2.83l2.51,7H166.5l-.23-.87h-1.93ZM165.82,24l-.3-1.25c-.07-.29-.12-.6-.17-.9h-.09L164.79,24Z"/><path class="cls-3" d="M170.16,24l.13.11a2.72,2.72,0,0,0,1.6.64c.25,0,.65-.1.65-.42s-.34-.34-.57-.39l-.51-.09A1.94,1.94,0,0,1,169.62,22a2.79,2.79,0,0,1,3-2.6,4.19,4.19,0,0,1,2.23.61l-.69,1.8a2.64,2.64,0,0,0-1.48-.53c-.23,0-.55.08-.55.37s.31.3.51.35l.58.13c1.08.24,1.86.82,1.86,2,0,1.68-1.53,2.51-3,2.51a6.43,6.43,0,0,1-2.71-.65Z"/><path class="cls-3" d="M69.78,35.65l.13.11a2.72,2.72,0,0,0,1.6.64c.25,0,.65-.1.65-.42s-.34-.35-.57-.39l-.51-.1a1.93,1.93,0,0,1-1.84-1.86A2.8,2.8,0,0,1,72.29,31a4.19,4.19,0,0,1,2.23.62l-.69,1.8a2.64,2.64,0,0,0-1.48-.53c-.23,0-.55.08-.55.37s.31.3.51.35l.58.13c1.08.24,1.86.82,1.86,2,0,1.68-1.53,2.51-3,2.51A6.38,6.38,0,0,1,69,37.64Z"/><path class="cls-3" d="M77.62,38.17H74.91l2.45-7h2.82l2.52,7H80l-.23-.87H77.82Zm1.69-2.55L79,34.38a8.93,8.93,0,0,1-.17-.9h-.09l-.47,2.14Z"/><path class="cls-3" d="M83.23,31.14h3.09c1.58,0,2.93.67,2.93,2.44a1.66,1.66,0,0,1-1.37,1.83v.06a1.67,1.67,0,0,1,.43.42l1.53,2.28h-3l-1.12-2.26h0v2.26h-2.5Zm2.5,3.11h.18c.42,0,.84-.06.84-.58s-.39-.61-.83-.61h-.19Z"/><path class="cls-3" d="M90.31,31.14h2.6c2.36,0,4.18,1,4.18,3.62a3.29,3.29,0,0,1-3.54,3.41H90.31Zm2.56,4.92H93c.84,0,1.5-.39,1.5-1.31S94,33.34,93,33.34h-.16Z"/><path class="cls-3" d="M98,31.14h4.73v1.92h-2.15v.67h2v1.83h-2v.69h2.23v1.92H98Z"/><path class="cls-3" d="M111.27,34a4,4,0,0,1-.85,3,4.09,4.09,0,0,1-3,1.25,3.64,3.64,0,1,1,0-7.26,4,4,0,0,1,3.46,1.81l-2.39.88a1.08,1.08,0,0,0-1-.54,1.48,1.48,0,0,0-1.42,1.63,1.38,1.38,0,0,0,1.31,1.51,1,1,0,0,0,1-.62h-1.16V34Z"/><path class="cls-3" d="M112.11,31.14h2.45l2.3,3.9h.07a10.91,10.91,0,0,1-.21-1.8v-2.1h2.44v7h-2.44l-2.25-3.69h-.07a8.55,8.55,0,0,1,.15,1.41v2.28h-2.44Z"/><path class="cls-3" d="M122.36,38.17h-2.71l2.44-7h2.83l2.51,7h-2.7l-.24-.87h-1.93ZM124,35.62l-.29-1.24a6.8,6.8,0,0,1-.17-.9h-.1L123,35.62Z"/><path class="cls-3" d="M129.32,31.21h3.09c1.59,0,2.93.67,2.93,2.44A1.66,1.66,0,0,1,134,35.48v.06a1.67,1.67,0,0,1,.43.42l1.53,2.28H133L131.87,36h-.05v2.26h-2.5Zm2.5,3.11H132c.42,0,.84-.06.84-.58s-.38-.61-.82-.61h-.2Z"/><path class="cls-3" d="M136.4,31.21H139v7H136.4Z"/><path class="cls-3" d="M145.36,34.06a2.28,2.28,0,0,0-1.5-.71,1.38,1.38,0,0,0-1.39,1.37,1.41,1.41,0,0,0,1.43,1.38,2,2,0,0,0,1.46-.66l-.07,2.64a5.82,5.82,0,0,1-1.82.28,3.53,3.53,0,0,1-3.58-3.57,3.67,3.67,0,0,1,3.68-3.7,5.54,5.54,0,0,1,1.72.29Z"/><path class="cls-3" d="M146.23,31.21H151v1.92h-2.15v.67h2v1.83h-2v.69H151v1.92h-4.81Z"/><path class="cls-3" d="M152.09,31.21h3.09c1.59,0,2.93.67,2.93,2.44a1.66,1.66,0,0,1-1.36,1.83v.06a1.67,1.67,0,0,1,.43.42l1.53,2.28h-3L154.64,36h0v2.26h-2.5Zm2.5,3.11h.18c.42,0,.84-.06.84-.58s-.38-.61-.82-.61h-.2Z"/><path class="cls-3" d="M164.37,34.06a2.28,2.28,0,0,0-1.5-.71,1.38,1.38,0,0,0-1.39,1.37,1.41,1.41,0,0,0,1.43,1.38,2,2,0,0,0,1.46-.66l-.07,2.64a5.82,5.82,0,0,1-1.82.28,3.53,3.53,0,0,1-3.58-3.57,3.67,3.67,0,0,1,3.68-3.7,5.54,5.54,0,0,1,1.72.29Z"/><path class="cls-3" d="M165.28,31.21h2.46v2.37h1.57V31.21h2.46v7h-2.46V35.8h-1.57v2.44h-2.46Z"/><path class="cls-3" d="M172.88,31.21h4.73v1.92h-2.15v.67h2v1.83h-2v.69h2.23v1.92h-4.81Z"/></svg>